<svg width="1920" height="122" viewBox="0 0 1920 122" fill="none" xmlns="http://www.w3.org/2000/svg">
<g clip-path="url(#clip0_60_38)">
<rect width="1920" height="122" fill="black"/>
<rect width="1920" height="122" fill="#D9272E"/>
<g clip-path="url(#clip1_60_38)">
<path fill-rule="evenodd" clip-rule="evenodd" d="M1746.18 21.063L1738.01 15L1690 54.3371L1711.64 105.989L1746.17 88.1328L1746.18 21.063Z" fill="white"/>
<path fill-rule="evenodd" clip-rule="evenodd" d="M1746.18 68.2587L1746.17 88.1328L1711.64 105.989L1690 54.3371L1693.17 51.7394V54.4071H1697.83V68.2587H1701.73V54.4071H1706.39V50.9507H1694.13L1738.01 15L1746.18 21.063L1746.18 50.9507H1736.1V68.2587H1746.18ZM1746.18 64.8023H1740V61.034H1746.18L1746.18 64.8023ZM1746.18 57.5776H1740V54.4071H1746.18L1746.18 57.5776ZM1733.87 79.6284H1735.18L1737.76 70.109H1736.94L1734.55 78.9852L1732.42 70.109H1731.08L1728.94 78.9852L1726.55 70.109H1725.74L1728.31 79.6284H1729.63L1731.75 70.7093L1733.87 79.6284ZM1744.86 79.6284H1745.69L1742.37 70.109H1741.12L1737.8 79.6284H1738.63L1739.52 77.127H1743.95L1744.86 79.6284ZM1715.88 50.9507H1710.68L1705.4 68.2587H1709.46L1710.39 64.8802H1716.2L1717.13 68.2587H1721.19L1715.88 50.9507ZM1726.78 68.2587V61.5538H1733.34V58.0974H1726.78V54.4071H1733.89V50.9507H1722.88V68.2587H1726.78ZM1713.28 54.3811L1715.26 61.6318H1711.28L1713.28 54.3811ZM1741.74 70.595L1743.7 76.3981H1739.78L1741.74 70.595Z" fill="black"/>
<path d="M1768.08 53L1762.41 41.612V53H1758.69V35.684H1763.47L1769.17 47.618V35.684H1772.89V53H1768.08ZM1781.33 53.26C1776.83 53.26 1775.61 50.738 1775.61 48.138V45.2C1775.61 42.6 1776.83 40.078 1781.33 40.078C1785.83 40.078 1787.05 42.6 1787.05 45.2V48.138C1787.05 50.738 1785.83 53.26 1781.33 53.26ZM1781.33 50.114C1782.68 50.114 1783.31 49.438 1783.31 48.242V45.096C1783.31 43.9 1782.68 43.224 1781.33 43.224C1779.98 43.224 1779.35 43.9 1779.35 45.096V48.242C1779.35 49.438 1779.98 50.114 1781.33 50.114ZM1796.87 43.614C1795.75 44.056 1794.32 44.706 1793.51 45.278V53H1789.77V40.338H1792.89L1793.15 41.56C1793.93 41.04 1795.54 40.286 1796.55 40.078L1796.87 43.614ZM1805.93 52.792C1805.09 53.078 1804.08 53.26 1803.22 53.26C1800.8 53.26 1799.4 52.35 1799.4 50.01V43.354H1797.68V40.338H1799.4V37.296L1803.14 36.776V40.338H1806.03L1805.82 43.354H1803.14V49.49C1803.14 50.01 1803.46 50.192 1803.92 50.192C1804.34 50.192 1804.94 50.14 1805.48 49.958L1805.93 52.792ZM1819.48 53H1815.74V44.628C1815.74 44.056 1815.48 43.718 1814.83 43.718C1814.15 43.718 1812.9 44.238 1812.1 44.654V53H1808.35V35.164L1812.05 34.644V41.248C1813.58 40.546 1815.11 40.078 1816.57 40.078C1818.73 40.078 1819.48 41.69 1819.48 44.134V53ZM1765.48 75.764L1762.46 68.38L1762.2 78H1758.43L1759.16 60.684H1763.06L1767.22 71.708L1771.38 60.684H1775.28L1776.01 78H1772.24L1771.98 68.38L1768.96 75.764H1765.48ZM1789.04 72.982H1782.22V73.346C1782.22 74.802 1782.8 75.192 1784.51 75.192C1785.68 75.192 1787.24 74.984 1788.36 74.646L1788.91 77.454C1787.76 77.87 1785.92 78.26 1784.15 78.26C1780.04 78.26 1778.48 76.232 1778.48 73.112V70.148C1778.48 67.418 1779.7 65.078 1783.91 65.078C1788.13 65.078 1789.04 67.574 1789.04 70.33V72.982ZM1785.5 70.174V69.628C1785.5 68.744 1785.24 68.016 1783.94 68.016C1782.64 68.016 1782.22 68.744 1782.22 69.628V70.174H1785.5ZM1798.72 77.792C1797.88 78.078 1796.87 78.26 1796.01 78.26C1793.59 78.26 1792.19 77.35 1792.19 75.01V68.354H1790.47V65.338H1792.19V62.296L1795.93 61.776V65.338H1798.82L1798.61 68.354H1795.93V74.49C1795.93 75.01 1796.25 75.192 1796.71 75.192C1797.13 75.192 1797.73 75.14 1798.27 74.958L1798.72 77.792ZM1808.24 68.614C1807.12 69.056 1805.69 69.706 1804.89 70.278V78H1801.14V65.338H1804.26L1804.52 66.56C1805.3 66.04 1806.92 65.286 1807.93 65.078L1808.24 68.614ZM1815.18 78.26C1810.68 78.26 1809.46 75.738 1809.46 73.138V70.2C1809.46 67.6 1810.68 65.078 1815.18 65.078C1819.67 65.078 1820.9 67.6 1820.9 70.2V73.138C1820.9 75.738 1819.67 78.26 1815.18 78.26ZM1815.18 75.114C1816.53 75.114 1817.15 74.438 1817.15 73.242V70.096C1817.15 68.9 1816.53 68.224 1815.18 68.224C1813.82 68.224 1813.2 68.9 1813.2 70.096V73.242C1813.2 74.438 1813.82 75.114 1815.18 75.114ZM1834.85 69.758V73.58C1834.85 76.57 1833.55 78.26 1830.58 78.26C1829.54 78.26 1828.22 78.104 1827.36 77.896V83.122L1823.61 83.642V65.338H1826.55L1826.94 66.352C1827.83 65.78 1829.46 65.078 1830.84 65.078C1833.42 65.078 1834.85 66.664 1834.85 69.758ZM1827.36 69.316V74.698C1828.01 74.854 1828.97 75.01 1829.75 75.01C1830.74 75.01 1831.1 74.412 1831.1 73.58V69.758C1831.1 68.874 1830.74 68.328 1829.75 68.328C1828.89 68.328 1827.9 68.848 1827.36 69.316ZM1842.65 78.26C1838.15 78.26 1836.93 75.738 1836.93 73.138V70.2C1836.93 67.6 1838.15 65.078 1842.65 65.078C1847.15 65.078 1848.37 67.6 1848.37 70.2V73.138C1848.37 75.738 1847.15 78.26 1842.65 78.26ZM1842.65 75.114C1844 75.114 1844.62 74.438 1844.62 73.242V70.096C1844.62 68.9 1844 68.224 1842.65 68.224C1841.3 68.224 1840.67 68.9 1840.67 70.096V73.242C1840.67 74.438 1841.3 75.114 1842.65 75.114ZM1854.83 78H1851.09V60.164L1854.83 59.644V78ZM1861.97 63.752H1858.22V59.774H1861.97V63.752ZM1861.97 78H1858.22V65.338H1861.97V78ZM1872.3 77.792C1871.47 78.078 1870.45 78.26 1869.59 78.26C1867.18 78.26 1865.77 77.35 1865.77 75.01V68.354H1864.06V65.338H1865.77V62.296L1869.52 61.776V65.338H1872.4L1872.19 68.354H1869.52V74.49C1869.52 75.01 1869.83 75.192 1870.3 75.192C1870.71 75.192 1871.31 75.14 1871.86 74.958L1872.3 77.792ZM1884.58 78H1881.51L1881.25 77.194C1879.8 78 1878.5 78.26 1877.64 78.26C1875.3 78.26 1874.34 76.57 1874.34 74.412C1874.34 71.864 1875.51 70.85 1878.11 70.85H1880.84V69.888C1880.84 68.588 1880.6 68.146 1878.6 68.146C1877.48 68.146 1876.36 68.276 1875.17 68.51L1874.67 65.702C1875.87 65.338 1877.77 65.078 1879.22 65.078C1883.62 65.078 1884.58 66.404 1884.58 69.914V78ZM1880.84 74.906V73.45H1879.04C1878.24 73.45 1877.92 73.658 1877.92 74.36C1877.92 75.062 1878.21 75.348 1878.94 75.348C1879.72 75.348 1880.26 75.166 1880.84 74.906ZM1898.83 78H1895.08V69.628C1895.08 69.056 1894.82 68.718 1894.17 68.718C1893.5 68.718 1892.25 69.186 1891.44 69.628V78H1887.7V65.338H1890.48L1890.87 66.3C1892.43 65.546 1894.46 65.078 1895.92 65.078C1898.07 65.078 1898.83 66.69 1898.83 69.134V78Z" fill="black"/>
</g>
</g>
<defs>
<clipPath id="clip0_60_38">
<rect width="1920" height="122" fill="white"/>
</clipPath>
<clipPath id="clip1_60_38">
<rect width="214" height="94" fill="white" transform="translate(1690 15)"/>
</clipPath>
</defs>
</svg>
