<svg id="Filled-Outline" enable-background="new 0 0 512 512" height="512" viewBox="0 0 512 512" width="512" xmlns="http://www.w3.org/2000/svg"><g><g><path d="m456.75 240-2.9699707 1.2799683c-.5100098.2200317-1.0200195.4299927-1.5400391.6400146l-1.2900391.5300293c-.6699219.2799683-1.3498535.5499878-2.0300293.8099976-.6799316.2699585-1.3598633.5299683-2.0400391.789978-3.4099121 1.2999878-6.8598633 2.5-10.3398438 3.5999756-2.0800781.6700439-4.1801758 1.3000488-6.2900391 1.8900146-5.6201172 1.5800171-11.3200684 2.9100342-17.0800781 3.9899902l-1.0400391.2000122c-7.4897461 1.4000244-13.619873 6.75-16.0297852 13.9799805-.7202148 2.1700439-1.0800781 4.4100342-1.0800781 6.6300049 0 .7200317.0400391 1.4400024.1098633 2.1600342.0700684.6400146.1601563 1.2699585.2900391 1.8999634.2600098 1.3400269.6601563 2.6400146 1.170166 3.9000244.2600098.6300049.5500488 1.25.869873 1.8599854.9699707 1.8099976 2.1999512 3.5 3.6999512 5l19.0700684 19.0700073c17.7800293 17.7800293 27.7900391 41.8900146 27.8300781 67.0499878v1.6300049c.0498047 29.5400391-14.0800781 57.3200073-37.9799805 74.6799927l-1.3200684.960022c-31.7600095 23.080017-70.0100095 35.5100097-109.280029 35.4899901-23.7600098 0-51.2399902-.0100098-75.9899902-.0100098-46.380127.0100098-91.5-15.039978-128.5998535-42.8599854l-2.170166-1.6300049c-24.1398926-18.1099854-42.119873-42.3399658-52.2399902-70.1199951l-.8701172-2.4000244c-10.0297852-27.5599976-8.9799805-57.9299927 2.9301758-84.7299805l.3898926-.8699951c5.7102049-12.8499755 16.3500975-22.369995 29.0700682-26.7399901 5.0600586-1.75 10.4499512-2.6799927 15.9899902-2.6799927h.0100098l7.0300293-7.0300293c10.869873-10.8699951 25.5998535-16.9699707 40.9699707-16.9699707l-.0200195 33.2299805c-.0100098 18.5700073 18.75 31.2800293 35.9899902 24.3800049l1.7299805-.6900024c28.0600586-11.2199708 57.6599121-16.919983 87.540039-16.9099732h1.1999512c9.6899414 0 17.5600586-7.8600464 17.5600586-17.5599976v-.3200073c0-3.9800415-1.3200684-7.8300171-3.7700195-10.9700317-7.1899414-9.2199707-23.25-29.8300171-35.6799316-45.7699585-10.7299805-13.7700195-16.5900879-30.7000122-16.6599121-48.1500244l-.0102539-2.2700195c-.1098633-26.7600098 13.2402344-51.7799683 35.5200195-66.5999756l1.0900879-.7299805c23.2600097-15.4700318 50.5500488-23.7700196 78.4899902-23.8800049 5.4699707-.0200195 10.9599609-.0400391 16.1201172-.0700073 18.4299316-.0800171 36.4399414 5.5 51.5898438 15.9899902l1.1201172.7700195c20.2399902 14 32.2800293 37.0699463 32.2099609 61.6699829v.6199951c-.0200195 6.289978-.8100586 12.5499878-2.3500977 18.6500244-.7797852 3.0899658-1.6599121 6.5999756-2.4899902 9.9199829-1.9799805 7.8699951.3300781 16.2000122 6.0600586 21.9299927.119873.1199951.25.2399902.369873.3499756l-33.6098633 22.4100342 40 32z" fill="#f8f117"/><path d="m488 211.789978c0 3.4799805-.9099121 6.8300171-2.5700684 9.7600098-1.6599121 2.9299927-4.0598145 5.4299927-7.0397949 7.2199707-6.9902344 4.1900024-14.2202148 7.9400024-21.6401367 11.2300415l-2.9699707 1.2799683c-.5100098.2200317-1.0200195.4299927-1.5400391.6400146l-1.2900391.5300293c-.6699219.2799683-1.3498535.5499878-2.0300293.8099976-.6799316.2699585-1.3598633.5299683-2.0400391.789978-3.4099121 1.2999878-6.8598633 2.5-10.3398438 3.5999756-2.0900879.6700439-4.1801758 1.2900391-6.2900391 1.8900146-5.6201172 1.5800171-11.3200684 2.9100342-17.0800781 3.9899902l-1.0400391.2000122c-7.4897461 1.4000244-13.619873 6.75-16.0297852 13.9799805-.7202148 2.1700439-1.0800781 4.4100342-1.0800781 6.6300049 0 .7200317.0400391 1.4400024.1098633 2.1600342.0700684.6400146.1601563 1.2699585.2900391 1.8999634.2600098 1.3400269.6601563 2.6400146 1.170166 3.9000244.2600098.6400146.5500488 1.25.869873 1.8599854.9699707 1.8099976 2.1999512 3.5 3.6999512 5l19.0700684 19.0700073c17.7800293 17.7800293 27.7900391 41.8900146 27.8300781 67.0499878v1.6300049c.0498047 29.5400391-14.0800781 57.3200073-37.9799805 74.6799927l-1.3200684.960022c-31.7600095 23.080017-70.0100095 35.5100097-109.280029 35.4899901-23.7600098 0-51.2399902-.0100098-75.9899902-.0100098-46.380127.0100098-91.5-15.039978-128.5998535-42.8599854l-2.170166-1.6300049c-24.1398926-18.1099854-42.119873-42.3399658-52.2399902-70.1199951l-.8701172-2.4000244c-10.0297852-27.5599976-8.9799805-57.9299927 2.9301758-84.7299805l.3898926-.8699951c5.7102049-12.8499755 16.3500975-22.369995 29.0700682-26.7399901 5.0600586-1.75 10.4499512-2.6799927 15.9899902-2.6799927h.0100098l7.0300293-7.0300293c10.869873-10.8699951 25.5998535-16.9699707 40.9699707-16.9699707l-.0200195 33.2299805c-.0100098 18.5700073 18.75 31.2800293 35.9899902 24.3800049l1.7299805-.6900024c28.0600586-11.2199708 57.6599121-16.919983 87.540039-16.9099732h1.1999512c9.6899414 0 17.5600586-7.8600464 17.5600586-17.5599976v-.3200073c0-3.9800415-1.3200684-7.8300171-3.7700195-10.9700317-7.1899414-9.2199707-23.25-29.8300171-35.6799316-45.7699585-10.7299805-13.7700195-16.5900879-30.7000122-16.6599121-48.1500244l-.0102539-2.2700195c-.1098633-26.7600098 13.2402344-51.7799683 35.5200195-66.5999756l1.0900879-.7299805c23.2600097-15.4700318 50.5500488-23.7700196 78.4899902-23.8800049 5.4699707-.0200195 10.9599609-.0400391 16.1201172-.0700073 18.4299316-.0800171 36.4399414 5.5 51.5898438 15.9899902l1.1201172.7700195c20.2399902 14 32.2800293 37.0699463 32.2099609 61.6699829v.6199951c-.0200195 6.289978-.8100586 12.5499878-2.3500977 18.6500244-.7797852 3.0899658-1.6599121 6.5999756-2.4899902 9.9199829-1.9799805 7.8699951.3300781 16.2000122 6.0600586 21.9299927.119873.1199951.25.2399902.369873.3499756 2.0800781 2 4.5102539 3.5700073 7.1201172 4.6500244 2.7700195 1.1500244 5.7700195 1.7600098 8.8300781 1.7600098h10.6499023c10.9301758 0 19.7900391 8.8599854 19.7900391 19.789978z" fill="#f8f117"/><path d="m389.1201172 465.0100098c-27.3500977 15.0599976-58.170166 23.0499878-89.6401367 23.0299683-23.7600098 0-51.2399902-.0100098-75.9899902-.0100098-46.380127.0100098-91.5-15.039978-128.5998535-42.8599854l-2.170166-1.6300049c-24.1398926-18.1099854-42.119873-42.3399658-52.2399902-70.1199951l-.8701172-2.4000244c-7.7797852-21.3899536-8.8898926-44.4699707-3.4199219-66.2599487 5.5400391 17.6799927 16.8601074 33.5599976 31.9399414 44.3599854-9.9399414.7199707-20.75-3.8300171-28.7797852-9.7399902 10.1999511 37.0899657 40.1098632 66.6900023 76.9199218 77.869995-9.3601074 2.9799805-17.1499023 4.1499634-26.9699707 4.1400146 46.3200684 34.2199708 99.9099121 55.5499878 157.1999512 61.3599854 48.0700684 4.8699951 97.1999512-1.2999878 142.6201172-17.7399902z" fill="#fcc200"/><path d="m392 272-.0000305-.0000305c-25.9501953-10.3800659-55.7853699-44.9756165-70.1651001-68.941864l-1.8348694-3.0581055 32-16 .0000305.0000458c15.2273865 25.3789673 48.8188477 58.8031006 78.0128479 63.6687622l1.9871216.331192z" fill="#fcc200"/><path d="m400 144h16v16h-16z" fill="#e22526"/><path d="m488 211.789978c0 3.4799805-.9099121 6.8300171-2.5700684 9.7600098-1.6599121 2.9299927-4.0598145 5.4299927-7.0397949 7.2199707-6.9902344 4.1900024-14.2202148 7.9400024-21.6401367 11.2300415h-8.75l-40-32 33.6098633-22.4100342c2.0800781 2 4.5102539 3.5700073 7.1201172 4.6500244 2.7700195 1.1500244 5.7700195 1.7600098 8.8300781 1.7600098h10.6499023c10.9301758 0 19.7900391 8.8599854 19.7900391 19.789978z" fill="#f8f117"/><path d="m264 272c32 0 48 24 48 40 0 24-16 56-56 72s-88 8-128-8-48-64-48-64h.0000381c26.3915329 0 52.5080795-5.3606262 76.7657242-15.7567444l.6151886-.2911072c33.3306732-15.7715454 69.7452088-23.9521484 106.6189881-23.9521484z" fill="#fcc200"/><path d="m301.8300781 346.5999756c-8.7700195 14.6600342-23.5900879 28.5-45.8300781 37.4000244-40 16-88 8-128-8-35.5900879-14.2300415-45.8400879-53.7900391-47.6699219-62.3500366 14.4499512 16.460022 35.9299316 28.710022 56.5898438 32.1600342-9.6699219 4.4799805-20.1298828 7.4899902-30.4299316 4.75 31.9899902 18.5199585 69.5200195 27.3200073 106.4099121 24.9699707 31.4401855-2.0100098 62.3100585-12.1099854 88.9301757-28.9299927z" fill="#f98800"/><path d="m93.6599121 285.6599731c-1.5698242 1.5599976-3.6098633 2.3400269-5.6599121 2.3400269s-4.0900879-.7800293-5.6599121-2.3400269c-6.670166-6.6699829-10.3400879-15.539978-10.3400879-24.9699707v-2.0100098c5.0600586-1.7499999 10.4499512-2.6799926 15.9899902-2.6799926h.0100098v4.6900024c0 5.1499634 2.0100098 10 5.6599121 13.6499634 3.1201172 3.1300049 3.1201172 8.1900025 0 11.3200073z" fill="#fcc200"/><path d="m448 88-39.2073364 17.4254837c-19.9412537 8.8627853-32.7926636 28.6380234-32.7926636 50.4601059v.0000763c0 21.9385376-12.9872437 41.7962646-33.0864258 50.5896454l-94.9135742 41.5246887-19.9605408-22.8120575c-23.0501556-26.3430176-34.5265808-60.8553009-31.8419189-95.7559662l.0000153-.0001068c2.393692-31.1180878 19.2987213-59.2931366 45.6294098-76.0490265l.0000916-.0000534c30.1556701-19.1899872 65.1583556-29.3827896 100.902191-29.3827896h.000061c16.7108765 0 33.2854919 3.0055542 48.932373 8.8731308l.000061.0000229c25.6957397 9.6358986 46.1461487 29.6465683 56.3382263 55.1268082z" fill="#63c4f8"/><path d="m420.6201172 100.1699829-11.8300781 5.2600098c-19.9399414 8.8599853-32.7900391 28.6300049-32.7900391 50.4600219 0 10.9699707-3.25 21.4099731-9.0100098 30.2199707s-14.0300293 15.9699707-24.0800781 20.3699951l-83.5 36.5300293c-9.8598633-15.0700073-18.9299316-30.6400146-24.7600098-47.6199951-7.8798828-22.9900513-9.2099609-49.2800293 1.8500977-70.9200439 7.2600098-14.2099609 19.3701172-25.4899902 32.8701172-33.9899902 24.2199707-15.25 53.5998535-22.1300049 82.0698242-19.2299805 25.2299805 2.5700073 49.6000977 12.8099976 69.1801758 28.9199829z" fill="#aedef8"/><path d="m259.4100037 243.0099945c-9.8600006-15.0699921-18.9300079-30.6399994-24.7600098-47.6199951-7.8799896-22.9900055-9.2099915-49.2799988 1.8500061-70.9199982 7.2599945-14.2099991 19.3699951-25.4899979 32.8699951-33.9899979 24.2200012-15.25 53.6000061-22.1300049 82.0700073-19.2300034 25.230011 2.5699997 49.6000061 12.8099976 69.1799927 28.9199982" fill="none"/><path d="m352 96 24 24-136 120-24-24z" fill="#00587e"/><path d="m440 96v-.0000153c-4.7775269-9.5550385-2.9048157-21.0951614 4.6491089-28.649086l3.3508911-3.3508987-40-40-56 56v16l32 32z" fill="#f05a29"/><path d="m400 112 40 23 48-47h-.0000305c-26.3051453-.0000229-52.2490234 6.1244888-75.7770386 17.8885193z" fill="#00587e"/><path d="m487.7989197 208.9559937c.6367493 4.479248-.2617798 8.8749847-2.368988 12.5939941-1.6599121 2.9299927-4.0598145 5.4299927-7.0397949 7.2199707-2.5973511 1.5568848-4.227356 3.0536346-5.6312561 4.4887848-4.2168884 4.3107605-9.9873352 6.743515-16.0176697 6.7412567h-.0023804-.0000306c-5.6568909 0-11.1453552-1.9252472-15.5626526-5.4590912l-19.5926514-15.674118c-6.7225647-5.3780518-6.2732239-15.7410431.8896179-20.5170135l19.1031799-12.7373962c.0198364-.0132294.0458984-.010849.0631104.0056458 2.0734253 1.9867096 4.4930115 3.5470276 7.0905762 4.6219635 2.7700196 1.1500242 5.7700196 1.7600096 8.8300782 1.7600096h10.1437988c9.9353028-.0000153 18.6968079 7.1195831 20.0950623 16.9559937z" fill="#f05a29"/><path d="m80.3300018 313.6499939c14.4499969 16.4599915 35.9300003 28.7099915 56.5899963 32.1600037-9.6699982 4.480011-20.1299973 7.4899902-30.4300003 4.75 31.9899979 18.519989 69.5199966 27.3200073 106.409996 24.9700012 31.4400024-2.0100098 62.3099976-12.1099854 88.9299927-28.9299927" fill="none"/></g><g><path d="m468.2099609 184h-10.6503906c-1.9882813 0-3.9267578-.3862305-5.7841797-1.1577148-1.7998047-.7407227-3.4863281-1.8676758-4.8779297-3.2587891-3.7265625-3.7265625-5.2441406-9.2148438-3.9570313-14.3330078.8291016-3.3134766 1.7070313-6.8173828 2.4863281-9.9013672 1.3979492-5.5374146 2.2287598-11.2106934 2.4941406-16.9085693l45.6757813-44.7242432c2.3232422-2.2749023 3.0390625-5.7290039 1.8105469-8.7387695-1.2285156-3.0102539-4.1562499-4.9775391-7.4072265-4.9775391-11.1782227 0-22.359375 1.0959473-33.3486328 3.2042236-1.4072266-3.3344727-2.9819336-6.6075439-4.7285156-9.784668.128418-.1375122.2512207-.2797241.3847656-.413208l3.3496094-3.3500977c3.1240234-3.1240234 3.1240234-8.1889648 0-11.3129883l-40-40c-3.125-3.1240234-8.1894531-3.1240234-11.3144531 0l-7.2722168 7.2722778c-.1992188-.0760498-.4064941-.1628418-.6037598-.2366333-8.2480469-3.0908203-16.8125-5.449707-25.4443359-7.0092773-8.6406251-1.5722655-17.4863282-2.3696288-26.2919922-2.3696288-18.5341797 0-36.9658203 2.6269531-54.7900391 7.8100586-17.8388672 5.2001953-34.7988281 12.8789063-50.4052734 22.8203125-13.9541016 8.8789063-25.8339844 21.0761719-34.3544922 35.2729492-8.5117188 14.1811523-13.6835938 30.402832-14.9570313 46.9111328-2.2663574 29.3521118 5.0107422 58.843811 20.546875 83.7623901-.4658203.9840088-.7316895 2.0625-.7666016 3.173645-.0693359 2.2070313.7773438 4.3447266 2.3388672 5.90625l24 24c.7175293.7173462 1.5419922 1.2632446 2.420166 1.6518555l5.2175293 5.9604492c1.5537109 1.7753906 3.7646484 2.7314453 6.0224609 2.7314453 1.0791016 0 2.1689453-.21875 3.203125-.6708984l18.1704102-7.9490356c.1828613.234375.3742676.4802246.5463867.7000122 1.3583985 1.7421875 2.0771485 3.8339844 2.0771485 6.0493164v.3203125c0 5.2709961-4.2880859 9.5595703-9.5595703 9.5595703h-1.1972656c-.0283203 0-.0546875 0-.0820313 0-30.2409668 0-59.9506836 5.6026611-88.3061523 16.6517944l-.0063477-.0145874-.3259277.1397095-.2941895.1141968c-.5136719.1992188-1.0302734.4003906-1.4912109.5878906l-1.7402344.6938477c-5.7070313 2.2856445-11.90625 1.6176758-17.0019531-1.8339844-5.0966797-3.4516602-8.0185547-8.9609375-8.0146484-15.1137695l.0195312-33.2299805c.0009766-2.1225586-.8408203-4.1586914-2.3417969-5.6601563-1.5-1.5014648-3.5351562-2.3447265-5.6582031-2.3447265-17.6132813 0-34.171875 6.8588867-46.6259766 19.3129883l-4.7890625 4.7890625c-21.2373047 1.2709961-40.2119141 14.3583984-48.9570313 34.0483398l-.3984375.890625c-12.8164063 28.8398438-13.9306641 61.0561523-3.1396484 90.7060547l.8740234 2.4111328c10.6738281 29.3041992 29.6777344 54.8173828 54.9511719 73.7783203l2.1748047 1.6337891c38.2363281 28.671875 85.5917969 44.4604492 133.3525391 44.4594727h.0478516l75.9863281.0102539h.1015625c41.1777344-.0009766 80.5585938-12.800293 113.8857422-37.0195313l1.3173828-.9580078c25.9023438-18.8134766 41.3330078-49.15625 41.2783203-81.1523438v-1.6430664c-.0439453-27.4638672-10.7587891-53.2802734-30.171875-72.6938477l-19.0703125-19.0698242c-2.4140625-2.4135742-3.7978516-5.753418-3.7978516-9.1635742 0-1.3813477.2265625-2.7641602.6699219-4.1000977 1.4892578-4.46875 5.2871094-7.7817383 9.9521484-8.6538086l1.0039063-.1933594c11.9550781-2.2431641 23.7568359-5.5620117 35.0722656-9.8632813 11.3505859-4.3066406 22.3818359-9.6557617 32.7910156-15.9013672 4.1044922-2.4648438 7.5214844-5.9697266 9.8808594-10.1337891 2.3623047-4.1679685 3.6103516-8.9067381 3.6103516-13.7041013 0-15.3232422-12.4667969-27.7900391-27.7900391-27.7900391zm-65.2070312 30.2470703 31.8984375 25.5186768c-.5375977.1730957-1.0756836.3441772-1.6152344.5125732l.0283203-.1694336-1.9863281-.3310547c-26.1674805-4.3613892-49.0949707-19.5960693-63.2563477-41.9356689 2.0375977-2.2997437 3.9152832-4.7553711 5.6147461-7.3548584 6.7470704-10.3203125 10.3134766-22.2841797 10.3134766-34.597168 0-13.5282593 5.7983398-26.1540527 15.486084-34.9579468l32.3452148 18.5986328c-.2937012 4.0098877-.9316406 7.99646-1.9182129 11.9008179-.78125 3.0952148-1.6630859 6.6118164-2.4921875 9.9272461-1.84375 7.331604-.8828125 15.0393677 2.4580078 21.6411743l-26.453125 18.4369507c-2.0703125 1.4423828-3.3378906 3.7773438-3.421875 6.2988281-.0830078 2.5214844 1.0283204 4.9350586 2.9990235 6.5112305zm-145.2446289 20.7526245 114.0256347-100.6108398c-2.4570312 6.7811889-3.7839355 14.0371704-3.7839355 21.5012817 0 9.1953125-2.6650391 18.1313477-7.7060547 25.8422852-5.0351563 7.7021484-12.15625 13.7255859-20.5898438 17.418457zm180.9750976-109.9562378-21.8232422-12.5488281c15.7080078-7.7011719 32.7089844-12.8095703 50.0654297-15.1049805zm-30.7333984-89.7299804 28.8007813 28.8012695c-1.2871094 1.5732422-2.4228516 3.2597656-3.3896484 5.0366211-3.0688477 5.6112061-4.3964844 12.017334-3.9111328 18.3192139l-23.9580078 10.6485596c-9.0605469 4.0258789-16.8408203 10.0366821-22.9360352 17.3788452-.2792969-.409729-.5927734-.7988281-.9487305-1.1547241l-21.6572266-21.6572266v-9.3725586zm-203.8232422 94.7319336c1.0830078-14.0454102 5.4824219-27.8457032 12.7226563-39.9086914 7.2490234-12.078125 17.3554688-22.4545898 29.2285156-30.0097656 14.3320313-9.1293945 29.90625-16.1801758 46.2851563-20.9550781 16.3671874-4.7587892 33.2958984-7.1718751 50.3173828-7.1718751 7.8476563 0 15.7294922.7104492 23.4365234 2.112793 5.5090332.9954834 10.980957 2.3608398 16.3435059 4.0628052l-36.1677246 36.1676636c-1.5000001 1.4999999-2.3427735 3.5351562-2.3427735 5.6567382v12.3900146l-123.3781738 108.8630372c-12.5480957-21.4133912-18.3635254-46.3661499-16.4450684-71.2076416zm23.5019531 86.3193359 123.9785156-109.3935547 12.6640625 12.6640625-123.9785156 109.3935547zm33.4853516 63.6450195h.0761719 1.2001953c3.3791504 0 6.604248-.6652222 9.5595703-1.8616943v1.8519287c28.8818359 0 32 22.378418 32 32 0 20.3823242-13.3496094 49.5234375-50.9707031 64.5722656-44.4033203 17.7607422-95.53125 2.6098633-122.0585938-8-25.2392578-10.0957031-36.3916016-35.2368164-40.7109375-48.8271484 24.0273438-1.1987305 47.4140625-6.6162109 69.6572266-16.1489258l18.5610352-7.9545898c26.5537109-10.3727417 54.3701171-15.631836 82.6860351-15.631836zm153.4091797 33.8769532c16.3984375 16.3984375 25.4492188 38.2060547 25.4863281 61.3930664v1.644043c.0458984 26.8935547-12.9189453 52.3862305-34.6835938 68.1953125l-1.3193359.9589844c-30.5751953 22.2197266-66.7001953 33.9619141-104.4833984 33.9619141-.0292969 0-.0625 0-.0927734 0l-75.9921875-.0102539c-.015625 0-.0283203 0-.0439453 0-44.3212891 0-88.2724609-14.6533203-123.75-41.2563477l-2.1738281-1.6328125c-22.7890625-17.0966797-39.9140625-40.0776367-49.5195313-66.4477539l-.8730469-2.4086914c-9.3701172-25.7456055-8.4023438-53.7109375 2.7138672-78.7246094l.3994141-.8925781c5.5771484-12.559082 16.8955078-21.3677979 30-23.8988647.9025879 7.8867188 4.4038086 15.1905518 10.1015625 20.8886108l11.3144531-11.3134766c-3.6484375-3.6484376-5.6572266-8.4985352-5.6572266-13.6567384v-1.3727417l4.6875-4.6868286c7.5175781-7.5175781 17.0097656-12.3432617 27.3076172-13.9926758l-.0146484 24.5908203c-.0068359 11.1696777 5.418457 21.5824585 14.529541 28.0004883-20.076416 7.1448365-41.0476075 10.7744141-62.5100098 10.7744141-2.3515625 0-4.5839844 1.034668-6.1044922 2.8291016-1.5195313 1.7944336-2.1728516 4.1665039-1.7871094 6.4863281.3574219 2.1411133 9.2431641 52.6411133 52.9208984 70.1123047 18.9873047 7.5952148 49.6943359 17.2978516 82.6445313 17.2963867 16.9355469-.0009766 34.4697266-2.5654297 51.296875-9.2963867 45.0458985-18.0180664 61.0292969-54.0483399 61.0292969-79.4277344 0-19.0524292-9.3227539-40.8392944-34.4902344-46.5537109 1.5949707-3.3326416 2.4902344-7.0615235 2.4902344-10.9960938v-.3203125c0-4.6748657-1.3093262-9.2800293-3.699707-13.2778931l39.0483398-17.0825195c14.8845215 24.5108643 37.5427246 43.9423828 64.0131836 54.9508667.9394531 6.0443115 3.7900391 11.7453613 8.1411133 16.0965576zm-24.9025879-51.6033326c-21.0559082-9.6455078-39.1118164-25.4093628-51.5024414-44.9969482l7.9499512-3.4778442c3.4318848-1.5025024 6.6982422-3.2971191 9.776123-5.3514404 11.8010254 17.7283936 28.3911133 31.4519653 47.6618652 39.7269897-6.0959472 2.9003906-11.0332031 7.8751831-13.885498 14.0992431zm88.7980957-44.6774292c-1.0019531 1.7695313-2.4541016 3.2583008-4.1953125 4.3041992-7.046875 4.2277832-14.4064941 8.0065918-21.965332 11.291687l-30.9506836-24.760437 19.2937012-13.4471436c1.5839844 1.0272217 3.2561035 1.9121704 5.0119629 2.6346436 3.7890624 1.5732422 7.7919921 2.3710938 11.8964843 2.3710938h10.6503906c6.5009766 0 11.7900391 5.2890625 11.7900391 11.7900391 0 2.0375976-.5292969 4.0488281-1.53125 5.8159179z"/><path d="m400 144h16v16h-16z"/></g></g></svg>