<svg width="700" height="700" viewBox="0 0 700 700" fill="none" xmlns="http://www.w3.org/2000/svg">
<rect width="700" height="700" fill="white"/>
<circle cx="357" cy="350" r="200" fill="black"/>
<path fill-rule="evenodd" clip-rule="evenodd" d="M375.697 669.404C369.182 669.799 362.614 670 356 670C179.269 670 36 526.731 36 350C36 314.935 41.6398 281.188 52.0618 249.615L137.911 226.612L160.11 309.463C157.416 322.554 156 336.112 156 350C156 460.457 245.543 550 356 550C361.728 550 367.4 549.759 373.006 549.287L314.293 608L375.697 669.404ZM377.027 669.32L315.707 608L374.557 549.151C476.314 539.789 556 454.2 556 350C556 302.813 539.659 259.443 512.326 225.24L592.089 246.612L614.82 161.78C653.298 214.6 676 279.649 676 350C676 519.666 543.957 658.492 377.027 669.32ZM356 150C418.661 150 474.591 178.816 511.262 223.919L591.382 245.388L614.062 160.745C555.82 81.461 461.92 30 356 30C214.755 30 94.8827 121.511 52.4393 248.479L138.618 225.388L160.567 307.305C180.126 217.361 260.196 150 356 150Z" fill="#007AFF" stroke="white" stroke-width="8"/>
<path fill-rule="evenodd" clip-rule="evenodd" d="M356 150C418.661 150 474.591 178.816 511.262 223.919L591.382 245.388L614.062 160.745C555.82 81.461 461.92 30 356 30C214.755 30 94.8827 121.511 52.4393 248.479L138.618 225.388L160.567 307.305C180.126 217.361 260.196 150 356 150Z" fill="#FF2D55"/>
<path d="M356 670C362.614 670 369.182 669.799 375.697 669.404L314.293 608L373.006 549.287C367.4 549.759 361.728 550 356 550M52.0618 249.615L137.911 226.612L160.11 309.463M377.027 669.32L315.707 608L374.557 549.151M512.326 225.24L592.089 246.612L614.82 161.78M511.262 223.919C474.591 178.816 418.661 150 356 150C260.196 150 180.126 217.361 160.567 307.305L138.618 225.388L52.4393 248.479C94.8827 121.511 214.755 30 356 30C461.92 30 555.82 81.461 614.062 160.745L591.382 245.388L511.262 223.919Z" stroke="white" stroke-width="8"/>
<path fill-rule="evenodd" clip-rule="evenodd" d="M377.027 669.32L315.707 608L374.557 549.15C476.314 539.789 556 454.2 556 350C556 302.813 539.659 259.443 512.326 225.24L592.089 246.612L614.82 161.78C653.298 214.6 676 279.649 676 350C676 519.666 543.957 658.492 377.027 669.32Z" fill="#34C759"/>
<path d="M356 670C362.614 670 369.182 669.799 375.697 669.404L314.293 608L373.006 549.287C367.4 549.759 361.728 550 356 550M511.262 223.919L591.382 245.388L614.062 160.745M377.027 669.32L315.707 608L374.557 549.15C476.314 539.789 556 454.2 556 350C556 302.813 539.659 259.443 512.326 225.24L592.089 246.612L614.82 161.78C653.298 214.6 676 279.649 676 350C676 519.666 543.957 658.492 377.027 669.32Z" stroke="white" stroke-width="8"/>
<path d="M300.648 77.936H321.48V81.824H305.16V91.568H321.48V95.456H305.16V110H300.648V77.936ZM321.949 110L333.997 77.888H339.037L351.037 110H346.237L343.789 102.992H329.197L326.749 110H321.949ZM336.493 82.448L330.589 99.104H342.397L336.493 82.448ZM354.684 106.448H359.196V81.488H354.684V77.936H368.22V81.488H363.708V106.448H368.22V110H354.684V106.448ZM375.039 110V77.936H379.551V106.112H396.783V110H375.039Z" fill="white"/>
<path d="M590.042 510.051L560.572 497.541L564.491 488.307C567.548 481.105 571.34 476.718 578.63 479.812C585.921 482.907 585.31 488.644 582.253 495.846L580.097 500.928L591.805 505.898L590.042 510.051ZM568.132 489.435L565.825 494.87L576.518 499.408L578.825 493.974C580.644 489.688 581.646 486.098 576.83 484.054C572.014 482.01 569.951 485.149 568.132 489.435ZM598.574 490.074L573.723 466.437L575.692 461.797L609.94 463.298L608.064 467.717L600.657 467.232L594.955 480.664L600.45 485.656L598.574 490.074ZM578.895 465.921L591.92 477.863L596.534 466.994L578.895 465.921ZM604.426 458.352L604.909 454.02C608.522 454.354 611.424 451.571 612.793 448.346C614.294 444.811 614.015 440.677 610.48 439.177C607.829 438.052 605.678 439.433 602.147 444.557C599.243 448.695 595.349 454.186 588.853 451.429C583.861 449.309 583.233 442.681 585.539 437.246C587.302 433.093 590.826 429.583 595.414 429.34L594.905 433.609C592.341 433.876 590.099 436.21 588.955 438.905C587.586 442.13 587.757 445.905 590.849 447.218C594.163 448.625 596.434 445.364 598.98 441.7C602.26 437.044 606.107 432.158 612.513 434.878C617.992 437.203 618.666 444.216 616.209 450.004C614.146 454.864 609.855 458.831 604.426 458.352ZM615.599 432.031L616.082 427.7C619.694 428.034 622.597 425.25 623.966 422.025C625.466 418.49 625.187 414.357 621.652 412.856C619.001 411.731 616.85 413.112 613.32 418.236C610.416 422.374 606.521 427.865 600.026 425.108C595.033 422.989 594.405 416.36 596.712 410.926C598.475 406.772 601.999 403.262 606.586 403.019L606.078 407.288C603.514 407.555 601.272 409.889 600.127 412.584C598.758 415.81 598.929 419.584 602.022 420.897C605.336 422.304 607.606 419.044 610.152 415.379C613.432 410.723 617.279 405.837 623.686 408.557C629.165 410.883 629.838 417.895 627.381 423.683C625.318 428.544 621.027 432.51 615.599 432.031Z" fill="white"/>
<path d="M75.7925 411.773L72.953 408.266L97.8714 388.088L104.275 395.996C109.199 402.077 111.479 407.333 105.511 412.166C102.116 414.915 98.4123 416.062 92.9095 410.944L88.4191 427.366L84.9453 423.076L89.2953 407.015L86.2746 403.285L75.7925 411.773ZM101.54 398.644L97.7639 393.981L89.2215 400.898L92.9975 405.561C95.9578 409.217 98.6941 411.757 102.536 408.646C106.379 405.534 104.5 402.299 101.54 398.644ZM116.544 411.147L130.228 428.046L127.207 430.492L116.362 417.101L108.79 423.233L116.795 433.118L113.773 435.565L105.768 425.68L97.4871 432.386L108.332 445.777L105.31 448.224L91.6261 431.326L116.544 411.147ZM133.684 432.312L146.794 448.502L143.772 450.949L133.502 438.266L125.929 444.398L136.2 457.081L133.178 459.528L122.908 446.845L111.605 455.997L108.765 452.491L133.684 432.312ZM122.17 469.045L154.708 458.199L157.88 462.116L140.476 491.65L137.455 487.92L141.361 481.607L132.178 470.267L125.191 472.775L122.17 469.045ZM152.735 463.009L136.075 468.902L143.506 478.079L152.735 463.009ZM149.872 504.169C144.102 497.044 146.091 488.516 153.663 482.384C161.422 476.101 170.218 476.513 175.927 483.564C179.31 487.742 180.166 492.917 177.937 497.563L174.341 495.41C175.673 492.478 175.457 489.009 172.829 485.763C169.265 481.362 163.054 480.709 156.563 485.965C150.296 491.04 149.224 497.343 153 502.006C155.628 505.251 158.94 506.214 162.152 505.528L163.51 509.493C158.367 510.693 153.436 508.57 149.872 504.169ZM181.679 497.76L184.7 495.313L200.952 515.382L197.93 517.829L191.224 509.547L169.327 527.279L166.488 523.773L188.385 506.041L181.679 497.76ZM189.18 526.244C196.678 520.172 205.705 520.336 211.505 527.498C217.335 534.698 215.618 543.561 208.12 549.633C200.585 555.735 191.521 555.601 185.691 548.402C179.891 541.24 181.645 532.346 189.18 526.244ZM192.08 529.825C185.627 535.051 184.983 541.502 188.638 546.015C192.323 550.566 198.767 551.278 205.221 546.052C211.637 540.856 212.243 534.436 208.558 529.885C204.903 525.371 198.496 524.629 192.08 529.825ZM202.256 567.943L199.417 564.436L224.335 544.258L230.739 552.166C235.663 558.246 237.943 563.503 231.975 568.336C228.58 571.085 224.876 572.231 219.373 567.114L214.883 583.536L211.409 579.246L215.759 563.185L212.739 559.455L202.256 567.943ZM228.004 554.814L224.228 550.151L215.685 557.068L219.461 561.731C222.422 565.387 225.158 567.927 229 564.815C232.842 561.704 230.964 558.469 228.004 554.814Z" fill="white"/>
<path d="M311.644 264.824V260.936H337.468V264.824H326.812V293H322.3V264.824H311.644ZM347.293 293.576C339.805 293.576 335.629 288.152 335.629 281.144C335.629 273.608 340.669 268.808 347.197 268.808C354.781 268.808 358.765 275.384 358.285 282.2H339.949C340.141 288.2 344.365 290.024 347.293 290.024C349.981 290.024 351.757 289.112 352.861 287.672L356.749 288.824C355.021 291.608 351.757 293.576 347.293 293.576ZM347.197 272.264C343.597 272.264 340.381 274.184 339.997 278.984H354.013C353.965 275.624 351.421 272.264 347.197 272.264ZM361.168 287.624L365.056 286.184C365.776 289.016 368.512 290.168 371.152 290.168C373.984 290.168 376.768 288.776 376.768 286.616C376.768 280.088 361.648 284.888 361.648 275.384C361.648 271.112 366.208 268.76 370.816 268.76C374.56 268.76 378.304 270.296 379.744 273.608L375.952 275C375.136 273.08 372.784 272.168 370.528 272.168C368.08 272.168 365.728 273.272 365.728 275.336C365.728 281.096 380.848 276.344 380.848 286.472C380.848 290.984 376.096 293.576 371.152 293.576C367.024 293.576 362.752 291.704 361.168 287.624ZM383.233 269.192H387.265V263.192H391.297V269.192H395.905V272.408H391.297V286.376C391.297 288.824 391.441 289.448 393.745 289.448H395.905V293H392.881C388.321 293 387.265 291.992 387.265 287.048V272.408H383.233V269.192ZM290.531 350V317.936H299.267C309.443 317.936 316.787 321.728 316.787 333.92C316.787 346.208 309.443 350 299.267 350H290.531ZM295.043 321.728V346.208H299.171C305.795 346.208 312.179 344.864 312.179 333.92C312.179 323.072 305.795 321.728 299.171 321.728H295.043ZM322.54 326.192H325.468L326.764 330.608C328.444 327.728 331.276 325.808 335.26 325.808V329.984C328.732 329.984 326.572 333.44 326.572 339.776V350H322.54V326.192ZM337.652 326.192H344.996V350H340.964V329.408H337.652V326.192ZM342.98 321.68C341.348 321.68 340.004 320.336 340.004 318.656C340.004 317.024 341.348 315.68 342.98 315.68C344.66 315.68 346.004 317.024 346.004 318.656C346.004 320.336 344.66 321.68 342.98 321.68ZM357.348 350L348.852 326.192H353.22L359.46 344.72L365.652 326.192H370.02L361.524 350H357.348ZM383.527 350.576C376.039 350.576 371.863 345.152 371.863 338.144C371.863 330.608 376.903 325.808 383.431 325.808C391.015 325.808 394.999 332.384 394.519 339.2H376.183C376.375 345.2 380.599 347.024 383.527 347.024C386.215 347.024 387.991 346.112 389.095 344.672L392.983 345.824C391.255 348.608 387.991 350.576 383.527 350.576ZM383.431 329.264C379.831 329.264 376.615 331.184 376.231 335.984H390.247C390.199 332.624 387.655 329.264 383.431 329.264ZM399.274 326.192H402.25L403.306 329.792C404.65 327.536 406.954 325.808 410.986 325.808C416.746 325.808 418.858 329.504 418.858 334.928V350H414.826V336.128C414.826 332.48 414.202 329.264 409.594 329.264C405.706 329.264 403.306 332 403.306 337.088V350H399.274V326.192ZM219.515 407V374.936H228.251C238.427 374.936 245.771 378.728 245.771 390.92C245.771 403.208 238.427 407 228.251 407H219.515ZM224.027 378.728V403.208H228.155C234.779 403.208 241.163 401.864 241.163 390.92C241.163 380.072 234.779 378.728 228.155 378.728H224.027ZM261.652 407.576C254.164 407.576 249.988 402.152 249.988 395.144C249.988 387.608 255.028 382.808 261.556 382.808C269.14 382.808 273.124 389.384 272.644 396.2H254.308C254.5 402.2 258.724 404.024 261.652 404.024C264.34 404.024 266.116 403.112 267.22 401.672L271.108 402.824C269.38 405.608 266.116 407.576 261.652 407.576ZM261.556 386.264C257.956 386.264 254.74 388.184 254.356 392.984H268.372C268.324 389.624 265.78 386.264 261.556 386.264ZM282.535 407L274.039 383.192H278.407L284.647 401.72L290.839 383.192H295.207L286.711 407H282.535ZM308.715 407.576C301.227 407.576 297.051 402.152 297.051 395.144C297.051 387.608 302.091 382.808 308.619 382.808C316.203 382.808 320.187 389.384 319.707 396.2H301.371C301.563 402.2 305.787 404.024 308.715 404.024C311.403 404.024 313.179 403.112 314.283 401.672L318.171 402.824C316.443 405.608 313.179 407.576 308.715 407.576ZM308.619 386.264C305.019 386.264 301.803 388.184 301.419 392.984H315.435C315.387 389.624 312.843 386.264 308.619 386.264ZM324.462 401.048V374.984H328.494V400.376C328.494 402.824 328.686 403.448 330.942 403.448H331.854V407H330.078C325.518 407 324.462 405.992 324.462 401.048ZM334.41 395.192C334.41 386.6 340.362 382.808 345.834 382.808C351.354 382.808 357.258 386.6 357.258 395.192C357.258 403.784 351.354 407.576 345.834 407.576C340.362 407.576 334.41 403.784 334.41 395.192ZM338.73 395.192C338.73 401.336 342.426 404.024 345.834 404.024C349.29 404.024 352.938 401.336 352.938 395.192C352.938 389.048 349.29 386.36 345.834 386.36C342.426 386.36 338.73 389.048 338.73 395.192ZM362.43 383.192H365.358L366.462 386.936C367.902 384.44 370.446 382.808 374.19 382.808C379.614 382.808 384.414 387.32 384.414 395.192C384.414 403.016 379.614 407.576 374.19 407.576C370.446 407.576 367.902 405.944 366.462 403.4V414.728H362.43V383.192ZM366.366 395.192C366.366 400.856 369.054 404.12 373.134 404.12C377.214 404.12 379.902 400.856 379.902 395.192C379.902 389.528 377.214 386.264 373.134 386.264C369.054 386.264 366.366 389.528 366.366 395.192ZM389.618 383.192H392.594L393.65 386.792C394.994 384.536 397.25 382.808 400.802 382.808C404.45 382.808 406.61 384.392 407.666 386.984C409.586 384.056 412.37 382.808 415.682 382.808C421.202 382.808 423.362 386.504 423.362 391.928V407H419.33V393.128C419.33 389.48 418.658 386.264 414.242 386.264C410.786 386.264 408.53 389 408.53 394.088V407H404.498V393.128C404.498 389.48 403.778 386.264 399.41 386.264C395.954 386.264 393.65 389 393.65 394.088V407H389.618V383.192ZM439.59 407.576C432.102 407.576 427.926 402.152 427.926 395.144C427.926 387.608 432.966 382.808 439.494 382.808C447.078 382.808 451.062 389.384 450.582 396.2H432.246C432.438 402.2 436.662 404.024 439.59 404.024C442.278 404.024 444.054 403.112 445.158 401.672L449.046 402.824C447.318 405.608 444.054 407.576 439.59 407.576ZM439.494 386.264C435.894 386.264 432.678 388.184 432.294 392.984H446.31C446.262 389.624 443.718 386.264 439.494 386.264ZM455.337 383.192H458.313L459.369 386.792C460.713 384.536 463.017 382.808 467.049 382.808C472.809 382.808 474.921 386.504 474.921 391.928V407H470.889V393.128C470.889 389.48 470.265 386.264 465.657 386.264C461.769 386.264 459.369 389 459.369 394.088V407H455.337V383.192ZM478.53 383.192H482.562V377.192H486.594V383.192H491.202V386.408H486.594V400.376C486.594 402.824 486.738 403.448 489.042 403.448H491.202V407H488.178C483.618 407 482.562 405.992 482.562 401.048V386.408H478.53V383.192Z" fill="white"/>
</svg>
