<svg width="1080" height="608" viewBox="0 0 1080 608" fill="none" xmlns="http://www.w3.org/2000/svg">
<g clip-path="url(#clip0_2014_16)">
<rect width="1080" height="608" fill="white"/>
<rect width="1080" height="608" fill="black"/>
<path d="M992.56 588.736V589.3H990.628V598H990.028V589.3H988.096V588.736H992.56ZM997.656 598H997.056V593.548C997.056 592.072 996.78 591.496 995.484 591.496C994.404 591.496 993.9 591.988 993.9 593.26V598H993.312V588.736H993.912V591.628C994.212 591.1 994.944 590.896 995.484 590.896C997.044 590.896 997.656 591.604 997.656 593.56V598ZM1002.7 596.092H1003.24C1003.24 597.364 1002.6 598.036 1001.17 598.036C999.657 598.036 998.949 597.34 998.949 595.432V593.548C998.949 591.628 999.657 590.896 1001.17 590.896C1002.79 590.896 1003.33 591.7 1003.33 593.548V594.592H999.525V595.384C999.525 596.812 999.861 597.496 1001.17 597.496C1002.45 597.496 1002.7 596.92 1002.7 596.092ZM999.525 594.04H1002.8V593.56C1002.8 592.216 1002.56 591.4 1001.17 591.4C999.873 591.4 999.525 592.048 999.525 593.524V594.04ZM1004.85 598V591.028H1005.4L1005.46 591.592C1005.83 591.088 1006.42 590.896 1007.19 590.896C1008.22 590.896 1008.82 591.328 1009.07 591.928C1009.65 591.052 1010.32 590.896 1011.09 590.896C1012.8 590.896 1013.24 591.808 1013.24 593.464V598H1012.64V593.452C1012.64 591.964 1012.35 591.448 1011.03 591.448C1009.72 591.448 1009.34 592.264 1009.34 593.272V598H1008.74V593.452C1008.74 592.144 1008.45 591.448 1007.13 591.448C1005.82 591.448 1005.45 592.06 1005.45 593.044V598H1004.85ZM1018.51 596.092H1019.05C1019.05 597.364 1018.41 598.036 1016.98 598.036C1015.47 598.036 1014.76 597.34 1014.76 595.432V593.548C1014.76 591.628 1015.47 590.896 1016.98 590.896C1018.6 590.896 1019.14 591.7 1019.14 593.548V594.592H1015.33V595.384C1015.33 596.812 1015.67 597.496 1016.98 597.496C1018.26 597.496 1018.51 596.92 1018.51 596.092ZM1015.33 594.04H1018.61V593.56C1018.61 592.216 1018.37 591.4 1016.98 591.4C1015.68 591.4 1015.33 592.048 1015.33 593.524V594.04ZM1023.44 595.432V588.328H1024.04V591.628C1024.39 591.028 1025.07 590.848 1025.66 590.848C1027.22 590.848 1027.88 591.568 1027.88 593.56V595.504C1027.88 597.364 1027.17 598.096 1025.66 598.096C1024.15 598.096 1023.44 597.544 1023.44 595.432ZM1025.66 597.496C1026.96 597.496 1027.28 596.944 1027.28 595.468V593.548C1027.28 592.036 1026.96 591.448 1025.66 591.448C1024.58 591.448 1024.03 591.916 1024.03 593.26V595.444C1024.03 596.956 1024.37 597.496 1025.66 597.496ZM1028.51 600.556L1028.71 600.028C1029.56 600.34 1029.92 600.088 1030.19 599.272L1030.51 598.036L1028.46 591.028H1029.12L1029.89 593.86L1030.83 597.1H1030.85L1031.65 593.86L1032.42 591.028H1033.08L1030.77 599.344C1030.43 600.58 1029.74 600.952 1028.51 600.556ZM1036.86 595.72L1036.27 598H1035.65L1038.03 588.736H1038.69L1041.06 598H1040.43L1039.83 595.72H1036.86ZM1038.37 589.612H1038.36L1037.01 595.156H1039.69L1038.37 589.612ZM1041.77 597.604C1041.77 597.04 1042.66 597.028 1042.66 597.604C1042.66 598.168 1041.77 598.18 1041.77 597.604ZM1048.91 591.22L1048.37 591.232C1048.33 589.768 1047.91 589.18 1046.27 589.18C1044.25 589.18 1044.19 590.152 1044.19 591.724V594.976C1044.19 596.392 1044.25 597.46 1046.27 597.46C1048.06 597.46 1048.41 596.68 1048.41 595.18V593.728H1046.29V593.188H1048.95V595.18C1048.95 597.088 1048.47 598.06 1046.27 598.06C1044.08 598.06 1043.59 597.088 1043.59 594.976V591.736C1043.59 589.564 1044.04 588.64 1046.27 588.64C1048.31 588.64 1048.87 589.468 1048.91 591.22ZM1052.41 597.532C1053.71 597.532 1054.03 596.908 1054.03 595.432V593.572C1054.03 592.06 1053.79 591.484 1052.41 591.484C1051.12 591.484 1050.79 592.072 1050.79 593.548V595.408C1050.79 596.92 1051.03 597.532 1052.41 597.532ZM1052.41 598.084C1050.9 598.084 1050.19 597.496 1050.19 595.456V593.536C1050.19 591.556 1050.9 590.92 1052.41 590.92C1053.93 590.92 1054.63 591.508 1054.63 593.572V595.456C1054.63 597.4 1053.93 598.084 1052.41 598.084ZM1060.51 598H1059.98L1059.93 597.232C1059.61 597.748 1059.03 598.108 1058.17 598.108C1056.53 598.108 1056.02 597.364 1056.02 595.552V591.028H1056.62V595.552C1056.62 597.112 1056.97 597.58 1058.23 597.58C1059.49 597.58 1059.91 596.704 1059.91 595.9V591.028H1060.51V598ZM1063.92 597.472V598.012C1062.45 598.108 1062.19 597.592 1062.19 596.032V588.736H1062.79V596.068C1062.79 597.304 1062.93 597.472 1063.92 597.472ZM1067.04 598.036C1065.56 598.036 1064.93 597.34 1064.93 595.504V593.236C1064.93 591.58 1065.75 590.896 1067.15 590.896C1067.88 590.896 1068.38 591.076 1068.77 591.52V588.256H1069.37V598H1068.84L1068.78 597.232C1068.44 597.724 1067.9 598.036 1067.04 598.036ZM1065.53 595.492C1065.53 597.064 1066.04 597.472 1067.1 597.472C1068.32 597.448 1068.77 596.788 1068.77 595.648V593.332C1068.78 592 1068.44 591.448 1067.15 591.448C1065.85 591.448 1065.53 592.084 1065.53 593.26V595.492Z" fill="black"/>
<path d="M11.176 22V13.6H12.34L17.476 20.476L17.284 20.584C17.252 20.384 17.224 20.168 17.2 19.936C17.176 19.696 17.152 19.444 17.128 19.18C17.112 18.908 17.096 18.624 17.08 18.328C17.072 18.024 17.064 17.708 17.056 17.38C17.048 17.052 17.044 16.712 17.044 16.36V13.6H18.34V22H17.152L12.1 15.376L12.232 15.208C12.272 15.696 12.304 16.112 12.328 16.456C12.36 16.792 12.384 17.08 12.4 17.32C12.424 17.552 12.44 17.744 12.448 17.896C12.456 18.04 12.46 18.16 12.46 18.256C12.468 18.352 12.472 18.436 12.472 18.508V22H11.176ZM23.2116 22.12C22.5956 22.12 22.0436 21.98 21.5556 21.7C21.0756 21.412 20.6956 21.024 20.4156 20.536C20.1356 20.04 19.9956 19.476 19.9956 18.844C19.9956 18.212 20.1356 17.652 20.4156 17.164C20.6956 16.668 21.0756 16.28 21.5556 16C22.0436 15.712 22.5956 15.568 23.2116 15.568C23.8196 15.568 24.3636 15.712 24.8436 16C25.3316 16.28 25.7156 16.668 25.9956 17.164C26.2756 17.652 26.4156 18.212 26.4156 18.844C26.4156 19.476 26.2756 20.04 25.9956 20.536C25.7156 21.024 25.3316 21.412 24.8436 21.7C24.3636 21.98 23.8196 22.12 23.2116 22.12ZM23.2116 20.992C23.5876 20.992 23.9236 20.9 24.2196 20.716C24.5156 20.524 24.7476 20.268 24.9156 19.948C25.0836 19.62 25.1636 19.252 25.1556 18.844C25.1636 18.428 25.0836 18.06 24.9156 17.74C24.7476 17.412 24.5156 17.156 24.2196 16.972C23.9236 16.788 23.5876 16.696 23.2116 16.696C22.8356 16.696 22.4956 16.792 22.1916 16.984C21.8956 17.168 21.6636 17.424 21.4956 17.752C21.3276 18.072 21.2476 18.436 21.2556 18.844C21.2476 19.252 21.3276 19.62 21.4956 19.948C21.6636 20.268 21.8956 20.524 22.1916 20.716C22.4956 20.9 22.8356 20.992 23.2116 20.992ZM27.7624 22V15.7H29.0104V17.68L28.8904 17.2C28.9784 16.896 29.1264 16.62 29.3344 16.372C29.5504 16.124 29.7944 15.928 30.0664 15.784C30.3464 15.64 30.6344 15.568 30.9304 15.568C31.0664 15.568 31.1944 15.58 31.3144 15.604C31.4424 15.628 31.5424 15.656 31.6144 15.688L31.2904 17.032C31.1944 16.992 31.0864 16.96 30.9664 16.936C30.8544 16.904 30.7424 16.888 30.6304 16.888C30.4144 16.888 30.2064 16.932 30.0064 17.02C29.8144 17.1 29.6424 17.216 29.4904 17.368C29.3464 17.512 29.2304 17.684 29.1424 17.884C29.0544 18.076 29.0104 18.288 29.0104 18.52V22H27.7624ZM33.6167 22V14.092H34.8527V22H33.6167ZM32.3087 16.9V15.7H36.3167V16.9H32.3087ZM37.4421 22V13.12H38.6781V16.996L38.4621 17.14C38.5421 16.86 38.6981 16.604 38.9301 16.372C39.1621 16.132 39.4381 15.94 39.7581 15.796C40.0781 15.644 40.4061 15.568 40.7421 15.568C41.2221 15.568 41.6221 15.664 41.9421 15.856C42.2621 16.04 42.5021 16.324 42.6621 16.708C42.8221 17.092 42.9021 17.576 42.9021 18.16V22H41.6661V18.244C41.6661 17.884 41.6181 17.588 41.5221 17.356C41.4261 17.116 41.2781 16.944 41.0781 16.84C40.8781 16.728 40.6301 16.68 40.3341 16.696C40.0941 16.696 39.8741 16.736 39.6741 16.816C39.4741 16.888 39.2981 16.992 39.1461 17.128C39.0021 17.264 38.8861 17.424 38.7981 17.608C38.7181 17.784 38.6781 17.976 38.6781 18.184V22H38.0661C37.9621 22 37.8581 22 37.7541 22C37.6501 22 37.5461 22 37.4421 22ZM48.2541 22V13.6H49.5261L52.5861 18.58L51.9741 18.568L55.0701 13.6H56.2701V22H54.9741V18.556C54.9741 17.836 54.9901 17.188 55.0221 16.612C55.0621 16.036 55.1261 15.464 55.2141 14.896L55.3821 15.34L52.6341 19.588H51.8421L49.1781 15.388L49.3101 14.896C49.3981 15.432 49.4581 15.984 49.4901 16.552C49.5301 17.112 49.5501 17.78 49.5501 18.556V22H48.2541ZM61.2532 22.12C60.6052 22.12 60.0292 21.984 59.5252 21.712C59.0292 21.432 58.6372 21.052 58.3492 20.572C58.0692 20.092 57.9292 19.54 57.9292 18.916C57.9292 18.42 58.0092 17.968 58.1692 17.56C58.3292 17.152 58.5492 16.8 58.8292 16.504C59.1172 16.2 59.4572 15.968 59.8492 15.808C60.2492 15.64 60.6812 15.556 61.1452 15.556C61.5532 15.556 61.9332 15.636 62.2852 15.796C62.6372 15.948 62.9412 16.16 63.1972 16.432C63.4612 16.704 63.6612 17.028 63.7972 17.404C63.9412 17.772 64.0092 18.176 64.0012 18.616L63.9892 19.144H58.8412L58.5652 18.16H62.9212L62.7412 18.364V18.076C62.7172 17.812 62.6292 17.576 62.4772 17.368C62.3252 17.16 62.1332 16.996 61.9012 16.876C61.6692 16.756 61.4172 16.696 61.1452 16.696C60.7132 16.696 60.3492 16.78 60.0532 16.948C59.7572 17.108 59.5332 17.348 59.3812 17.668C59.2292 17.98 59.1532 18.368 59.1532 18.832C59.1532 19.272 59.2452 19.656 59.4292 19.984C59.6132 20.304 59.8732 20.552 60.2092 20.728C60.5452 20.904 60.9332 20.992 61.3732 20.992C61.6852 20.992 61.9732 20.94 62.2372 20.836C62.5092 20.732 62.8012 20.544 63.1132 20.272L63.7372 21.148C63.5452 21.34 63.3092 21.508 63.0292 21.652C62.7572 21.796 62.4652 21.912 62.1532 22C61.8492 22.08 61.5492 22.12 61.2532 22.12ZM66.1245 22V14.092H67.3605V22H66.1245ZM64.8165 16.9V15.7H68.8245V16.9H64.8165ZM69.9499 22V15.7H71.1979V17.68L71.0779 17.2C71.1659 16.896 71.3139 16.62 71.5219 16.372C71.7379 16.124 71.9819 15.928 72.2539 15.784C72.5339 15.64 72.8219 15.568 73.1179 15.568C73.2539 15.568 73.3819 15.58 73.5019 15.604C73.6299 15.628 73.7299 15.656 73.8019 15.688L73.4779 17.032C73.3819 16.992 73.2739 16.96 73.1539 16.936C73.0419 16.904 72.9299 16.888 72.8179 16.888C72.6019 16.888 72.3939 16.932 72.1939 17.02C72.0019 17.1 71.8299 17.216 71.6779 17.368C71.5339 17.512 71.4179 17.684 71.3299 17.884C71.2419 18.076 71.1979 18.288 71.1979 18.52V22H69.9499ZM77.3523 22.12C76.7363 22.12 76.1843 21.98 75.6963 21.7C75.2163 21.412 74.8363 21.024 74.5563 20.536C74.2763 20.04 74.1363 19.476 74.1363 18.844C74.1363 18.212 74.2763 17.652 74.5563 17.164C74.8363 16.668 75.2163 16.28 75.6963 16C76.1843 15.712 76.7363 15.568 77.3523 15.568C77.9603 15.568 78.5043 15.712 78.9843 16C79.4723 16.28 79.8563 16.668 80.1363 17.164C80.4163 17.652 80.5563 18.212 80.5563 18.844C80.5563 19.476 80.4163 20.04 80.1363 20.536C79.8563 21.024 79.4723 21.412 78.9843 21.7C78.5043 21.98 77.9603 22.12 77.3523 22.12ZM77.3523 20.992C77.7283 20.992 78.0643 20.9 78.3603 20.716C78.6563 20.524 78.8883 20.268 79.0563 19.948C79.2243 19.62 79.3043 19.252 79.2963 18.844C79.3043 18.428 79.2243 18.06 79.0563 17.74C78.8883 17.412 78.6563 17.156 78.3603 16.972C78.0643 16.788 77.7283 16.696 77.3523 16.696C76.9763 16.696 76.6363 16.792 76.3323 16.984C76.0363 17.168 75.8043 17.424 75.6363 17.752C75.4683 18.072 75.3883 18.436 75.3963 18.844C75.3883 19.252 75.4683 19.62 75.6363 19.948C75.8043 20.268 76.0363 20.524 76.3323 20.716C76.6363 20.9 76.9763 20.992 77.3523 20.992ZM81.9031 24.64V15.7H83.1511V17.14L82.9591 17.032C83.0071 16.792 83.1431 16.564 83.3671 16.348C83.5911 16.124 83.8631 15.944 84.1831 15.808C84.5111 15.664 84.8471 15.592 85.1911 15.592C85.7591 15.592 86.2631 15.732 86.7031 16.012C87.1431 16.292 87.4911 16.676 87.7471 17.164C88.0031 17.652 88.1311 18.212 88.1311 18.844C88.1311 19.468 88.0031 20.028 87.7471 20.524C87.4991 21.012 87.1551 21.4 86.7151 21.688C86.2751 21.968 85.7791 22.108 85.2271 22.108C84.8591 22.108 84.5031 22.036 84.1591 21.892C83.8151 21.74 83.5231 21.548 83.2831 21.316C83.0431 21.084 82.8951 20.844 82.8391 20.596L83.1511 20.428V24.64H81.9031ZM85.0231 20.968C85.3911 20.968 85.7191 20.876 86.0071 20.692C86.2951 20.508 86.5231 20.256 86.6911 19.936C86.8591 19.616 86.9431 19.252 86.9431 18.844C86.9431 18.436 86.8591 18.076 86.6911 17.764C86.5311 17.444 86.3071 17.192 86.0191 17.008C85.7311 16.824 85.3991 16.732 85.0231 16.732C84.6471 16.732 84.3151 16.824 84.0271 17.008C83.7391 17.184 83.5111 17.432 83.3431 17.752C83.1751 18.072 83.0911 18.436 83.0911 18.844C83.0911 19.252 83.1751 19.616 83.3431 19.936C83.5111 20.256 83.7391 20.508 84.0271 20.692C84.3151 20.876 84.6471 20.968 85.0231 20.968ZM92.3054 22.12C91.6894 22.12 91.1374 21.98 90.6494 21.7C90.1694 21.412 89.7894 21.024 89.5094 20.536C89.2294 20.04 89.0894 19.476 89.0894 18.844C89.0894 18.212 89.2294 17.652 89.5094 17.164C89.7894 16.668 90.1694 16.28 90.6494 16C91.1374 15.712 91.6894 15.568 92.3054 15.568C92.9134 15.568 93.4574 15.712 93.9374 16C94.4254 16.28 94.8094 16.668 95.0894 17.164C95.3694 17.652 95.5094 18.212 95.5094 18.844C95.5094 19.476 95.3694 20.04 95.0894 20.536C94.8094 21.024 94.4254 21.412 93.9374 21.7C93.4574 21.98 92.9134 22.12 92.3054 22.12ZM92.3054 20.992C92.6814 20.992 93.0174 20.9 93.3134 20.716C93.6094 20.524 93.8414 20.268 94.0094 19.948C94.1774 19.62 94.2574 19.252 94.2494 18.844C94.2574 18.428 94.1774 18.06 94.0094 17.74C93.8414 17.412 93.6094 17.156 93.3134 16.972C93.0174 16.788 92.6814 16.696 92.3054 16.696C91.9294 16.696 91.5894 16.792 91.2854 16.984C90.9894 17.168 90.7574 17.424 90.5894 17.752C90.4214 18.072 90.3414 18.436 90.3494 18.844C90.3414 19.252 90.4214 19.62 90.5894 19.948C90.7574 20.268 90.9894 20.524 91.2854 20.716C91.5894 20.9 91.9294 20.992 92.3054 20.992ZM96.8802 22V13.12H98.1162V22H96.8802ZM100.072 22V15.7H101.308V22H100.072ZM100.672 14.308C100.408 14.308 100.204 14.24 100.06 14.104C99.9159 13.968 99.8439 13.776 99.8439 13.528C99.8439 13.296 99.9159 13.108 100.06 12.964C100.212 12.82 100.416 12.748 100.672 12.748C100.936 12.748 101.14 12.816 101.284 12.952C101.428 13.088 101.5 13.28 101.5 13.528C101.5 13.76 101.424 13.948 101.272 14.092C101.128 14.236 100.928 14.308 100.672 14.308ZM103.988 22V14.092H105.224V22H103.988ZM102.68 16.9V15.7H106.688V16.9H102.68ZM110.179 22.12C109.659 22.12 109.183 21.976 108.751 21.688C108.327 21.4 107.987 21.008 107.731 20.512C107.475 20.016 107.347 19.456 107.347 18.832C107.347 18.2 107.475 17.64 107.731 17.152C107.995 16.656 108.347 16.268 108.787 15.988C109.235 15.708 109.735 15.568 110.287 15.568C110.615 15.568 110.915 15.616 111.187 15.712C111.459 15.808 111.695 15.944 111.895 16.12C112.103 16.288 112.271 16.484 112.399 16.708C112.535 16.932 112.619 17.172 112.651 17.428L112.375 17.332V15.7H113.623V22H112.375V20.5L112.663 20.416C112.615 20.632 112.515 20.844 112.363 21.052C112.219 21.252 112.031 21.432 111.799 21.592C111.575 21.752 111.323 21.88 111.043 21.976C110.771 22.072 110.483 22.12 110.179 22.12ZM110.503 20.98C110.879 20.98 111.211 20.888 111.499 20.704C111.787 20.52 112.011 20.268 112.171 19.948C112.339 19.62 112.423 19.248 112.423 18.832C112.423 18.424 112.339 18.06 112.171 17.74C112.011 17.42 111.787 17.168 111.499 16.984C111.211 16.8 110.879 16.708 110.503 16.708C110.135 16.708 109.807 16.8 109.519 16.984C109.239 17.168 109.015 17.42 108.847 17.74C108.687 18.06 108.607 18.424 108.607 18.832C108.607 19.248 108.687 19.62 108.847 19.948C109.015 20.268 109.239 20.52 109.519 20.704C109.807 20.888 110.135 20.98 110.503 20.98ZM115.348 22V15.7H116.584V16.996L116.368 17.14C116.448 16.86 116.604 16.604 116.836 16.372C117.068 16.132 117.344 15.94 117.664 15.796C117.984 15.644 118.312 15.568 118.648 15.568C119.128 15.568 119.528 15.664 119.848 15.856C120.168 16.04 120.408 16.324 120.568 16.708C120.728 17.092 120.808 17.576 120.808 18.16V22H119.572V18.244C119.572 17.884 119.524 17.588 119.428 17.356C119.332 17.116 119.184 16.944 118.984 16.84C118.784 16.728 118.536 16.68 118.24 16.696C118 16.696 117.78 16.736 117.58 16.816C117.38 16.888 117.204 16.992 117.052 17.128C116.908 17.264 116.792 17.424 116.704 17.608C116.624 17.784 116.584 17.976 116.584 18.184V22H115.972C115.868 22 115.764 22 115.66 22C115.556 22 115.452 22 115.348 22ZM127.756 22V14.848H125.404V13.6H131.476V14.848H129.052V22H127.756ZM131.601 22L134.853 13.6H136.173L139.401 22H138.021L136.101 16.936C136.077 16.88 136.029 16.744 135.957 16.528C135.893 16.312 135.817 16.072 135.729 15.808C135.641 15.544 135.561 15.304 135.489 15.088C135.417 14.864 135.369 14.72 135.345 14.656L135.621 14.644C135.573 14.78 135.513 14.952 135.441 15.16C135.377 15.368 135.305 15.588 135.225 15.82C135.153 16.052 135.081 16.272 135.009 16.48C134.937 16.68 134.877 16.848 134.829 16.984L132.921 22H131.601ZM133.041 19.912L133.521 18.664H137.337L137.889 19.912H133.041ZM140.879 22V13.6H142.175V22H140.879ZM141.455 18.424V17.176H145.787V18.424H141.455ZM141.455 14.848V13.6H146.327V14.848H141.455ZM148.098 22V13.6H153.39V14.848H149.394V20.752H153.39V22H148.098ZM148.686 18.316V17.068H152.73V18.316H148.686Z" fill="white" fill-opacity="0.5"/>
<path fill-rule="evenodd" clip-rule="evenodd" d="M1070.44 52.1437L1070.44 65.4357C1070.44 66.931 1069.61 68.3014 1068.28 68.9883L1045.04 81.0041C1044.01 81.5407 1042.73 81.0776 1042.28 80.0002L1027.15 43.8771C1026.47 42.2457 1026.94 40.3592 1028.31 39.2381L1028.51 39.0719V41.1829H1032.19V52.1437H1035.28V41.1829H1038.97V38.4479H1029.27L1062.78 10.989C1063.49 10.4076 1064.5 10.3833 1065.24 10.9299L1068.83 13.598C1069.85 14.3527 1070.45 15.5442 1070.45 16.8104L1070.45 38.4479H1062.47V52.1437H1070.44ZM1070.44 49.4086H1065.56V46.4268H1070.44L1070.44 49.4086ZM1070.45 43.6918H1065.56V41.1829H1070.45L1070.45 43.6918ZM1060.7 61.1405H1061.75L1063.78 53.6078H1063.14L1061.25 60.6316L1059.56 53.6078H1058.5L1056.81 60.6316L1054.92 53.6078H1054.27L1056.31 61.1405H1057.35L1059.03 54.0829L1060.7 61.1405ZM1069.4 61.1405H1070.06L1067.43 53.6078H1066.44L1063.82 61.1405H1064.47L1065.18 59.1612H1068.69L1069.4 61.1405ZM1046.48 38.4479H1042.36L1038.18 52.1437H1041.39L1042.14 49.4703H1046.73L1047.47 52.1437H1050.68L1046.48 38.4479ZM1055.1 52.1437V46.8381H1060.29V44.103H1055.1V41.1829H1060.72V38.4479H1052.02V52.1437H1055.1ZM1044.42 41.1624L1045.98 46.8998H1042.83L1044.42 41.1624ZM1066.93 53.9924L1068.48 58.5844H1065.38L1066.93 53.9924Z" fill="#D9272E" fill-opacity="0.5"/>
<path d="M444.698 116.118L549.757 70.3922C567.575 62.6372 588.239 65.5537 603.214 77.9372C626.336 97.0569 628.323 131.8 607.533 153.432L593.456 168.079C571.916 190.492 538.229 196.134 510.561 181.962L443.705 147.716C436.31 143.928 432.601 135.46 434.832 127.456C436.246 122.384 439.87 118.22 444.698 116.118Z" fill="#DA262E" fill-opacity="0.05"/>
<path d="M1091.11 424.472L1084.55 516.817C1083.44 532.479 1073.62 546.186 1059.14 552.277C1036.8 561.682 1011.18 550.108 1003.46 527.126L998.241 511.565C990.249 487.753 998.812 461.518 1019.31 447.006L1068.85 411.939C1074.33 408.06 1081.78 408.573 1086.68 413.165C1089.78 416.075 1091.41 420.229 1091.11 424.472Z" fill="#DA262E" fill-opacity="0.05"/>
<path d="M127.36 555.559L122.046 588.733C120.942 595.625 114.212 600.124 107.421 598.51L51.6056 585.237C46.4531 584.012 42.7131 579.554 42.4023 574.267L38.3044 504.567C38.0032 499.444 41.3486 494.816 46.3079 493.496C49.4506 492.659 52.803 493.283 55.4343 495.194L122.563 543.952C126.221 546.609 128.075 551.095 127.36 555.559Z" fill="#DA262E" fill-opacity="0.05"/>
<path d="M482.285 474.773L514.538 441.056C524.187 430.968 540.377 431.213 549.717 441.587L606.295 504.43C613.382 512.302 614.47 523.889 608.973 532.943L552.074 626.663C547.762 633.766 539.048 636.853 531.226 634.05C526.27 632.273 522.377 628.358 520.63 623.391L476.988 499.327C473.987 490.798 476.035 481.306 482.285 474.773Z" fill="#DA262E" fill-opacity="0.05"/>
<path d="M809.712 -5.91053L892.221 -22.1151C933.314 -30.1859 972.599 -1.61679 977.584 39.9643L998.002 210.264C1001.78 241.814 984.437 272.114 955.313 284.824L728.692 383.725C710.724 391.566 689.72 385.681 678.441 369.646C671.294 359.485 669.106 346.644 672.484 334.689L754.301 45.1603C761.677 19.0583 783.096 -0.683237 809.712 -5.91053Z" fill="#DA262E" fill-opacity="0.05"/>
<path d="M314.326 129.824L302.535 122.074C294.758 116.962 284.276 119.541 279.758 127.677L264.521 155.121C261.093 161.295 262.118 168.986 267.042 174.046L300.701 208.635C303.436 211.445 307.77 211.943 311.07 209.826C313.161 208.485 314.537 206.273 314.815 203.804L321.438 144.984C322.112 138.995 319.363 133.134 314.326 129.824Z" fill="#DA262E" fill-opacity="0.05"/>
<path d="M179.994 259.881L216.45 301.955C228.639 316.022 226.296 337.484 211.36 348.59L128.6 410.127C117.267 418.554 101.75 418.555 90.4153 410.13L-19.2373 328.617C-27.6283 322.379 -30.4715 311.098 -26.0393 301.629C-23.2306 295.628 -17.8676 291.212 -11.4392 289.607L148.059 249.789C159.755 246.869 172.099 250.77 179.994 259.881Z" fill="#DA262E" fill-opacity="0.05"/>
</g>
<defs>
<clipPath id="clip0_2014_16">
<rect width="1080" height="608" fill="white"/>
</clipPath>
</defs>
</svg>
